# xmcd
#
# Track frame offsets:
#	150
#	14635
#	33769
#	61617
#	81645
#	90548
#	101056
#	124597
#	146791
#	157487
#	169608
#	182850
#	206770
#	240186
#	254475
#	279445
#
# Disc length: 4049
#
# Revision: 1
# Processed by: cddbd v1.5.1PL0 Copyright (c) Steve Scherf et al.
# Submitted via: CDex 1.51
# Normalized: r0:DSETVAR1,TDELIM( - )
#
DISCID=e10fcf10
DTITLE=Various Artist - Vancouver, B.C.'s Best Blues
DYEAR=2002
DGENRE=Blues
TTITLE0=Powder Blues - Swingin 'the Blues
TTITLE1=David Gogo - Soul Fever
TTITLE2=The Fabricators - Heaven Bound
TTITLE3=Keith Bennett - Bartalk
TTITLE4=David Vidal - Kickin
TTITLE5=Kenny "Blues Boss" Wayne - Blues Boss Boogie
TTITLE6=Dr.Z and the M.D.s - You'll Be Back
TTITLE7=Harpdog Brown - How Come?
TTITLE8=Willie MacCalder - Blues in the Pocket
TTITLE9=Bourne, Schuld, Stamer - Fishin' Blues
TTITLE10=The Twisters - Fulla Hot Air
TTITLE11=Al Walker - Too Many Bills
TTITLE12=Tim Hearsay - Look Out
TTITLE13=Long John Baldry - Easy Rider Blues
TTITLE14=Larrie Clark - Albert's Blues
TTITLE15=Jim Byrnes - If I Ever Cried
EXTD=YEAR: 2002
EXTT0=
EXTT1=
EXTT2=
EXTT3=
EXTT4=
EXTT5=
EXTT6=
EXTT7=
EXTT8=
EXTT9=
EXTT10=
EXTT11=
EXTT12=
EXTT13=
EXTT14=
EXTT15=
PLAYORDER=
